<?xml version="1.0" encoding="UTF-8"?>
<svg width="194px" height="109px" viewBox="0 0 194 109" version="1.1" xmlns="http://www.w3.org/2000/svg" xmlns:xlink="http://www.w3.org/1999/xlink">
    <!-- Generator: Sketch 43.1 (39012) - http://www.bohemiancoding.com/sketch -->
    <title>Group 9</title>
    <desc>Created with Sketch.</desc>
    <defs></defs>
    <g id="Request-a-project-page" stroke="none" stroke-width="1" fill="none" fill-rule="evenodd">
        <g id="Index-Page" transform="translate(-620.000000, -3825.000000)">
            <g id="Group-9" transform="translate(621.000000, 3798.000000)">
                <text id="T" font-family="DINAlternate-Bold, DIN Alternate" font-size="130" font-weight="bold" letter-spacing="0.109999999" fill="#4A4A4A">
                    <tspan x="66.0896669" y="122">  </tspan>
                    <tspan x="128.643651" y="122">T</tspan>
                </text>
                <path d="M82.0000003,106.455339 C85.6737395,107.479935 89.579215,108.009468 93.7164445,108.043945 C105.734734,107.874674 111.828423,103.579469 111.997695,95.1582031 C112.08233,88.2603822 108.062188,84.1132882 99.9371476,82.7167969 C96.2131707,82.2089818 92.1295527,81.6376985 87.6861711,81.0029297 C85.6682652,80.6701899 83.7728759,80.2326381 82.0000003,79.690273 L82.0000003,63.9763976 C84.0343344,65.4132759 86.7972229,66.4549908 90.2887101,67.1015625 C92.8277853,67.5247417 96.2978027,68.0113905 100.698866,68.5615234 C109.37404,69.7464252 115.785109,72.8567457 119.932265,77.8925781 C124.037103,82.8437748 126.089491,88.5989255 126.089491,95.1582031 C125.623994,112.847094 114.790769,121.818358 93.5894914,122.072266 C89.5600146,122.072266 85.6968539,121.706775 82.0000003,120.97579 L82.0000003,106.455339 Z M82.0000003,29.5060703 C85.3585027,28.5391767 89.1370248,28.0371554 93.3355851,28 C104.846059,28.2539075 114.854097,31.4488625 123.359999,37.5849609 L115.552382,49.1376953 C108.612243,44.56736 100.973973,42.197592 92.6373429,42.0283203 C88.3974125,42.0283203 84.8516657,43.0695019 82,45.1518957 L82.0000003,29.5060703 Z" id="Combined-Shape" fill="#4A4A4A"></path>
                <path d="M13.9625684,82.8447266 L29.1359082,82.8447266 C32.9852113,82.880534 35.8766212,83.8473212 37.8102247,85.7451172 C39.7617318,87.6608169 40.7374707,90.1941574 40.7374707,93.3452148 C40.7732782,94.956551 40.3883537,96.4962492 39.5826856,97.9643555 C39.1708997,98.6626011 38.5800853,99.3250294 37.8102247,99.9516602 C37.040364,100.614098 36.0914803,101.213865 34.963545,101.750977 L34.963545,101.858398 C37.0940895,102.413414 38.7054015,103.532381 39.7975293,105.215332 C40.8180423,106.951994 41.3282911,108.84081 41.3282911,110.881836 C41.2924836,114.265642 40.236179,116.94221 38.1593457,118.911621 C36.1004162,120.970551 33.5312687,122 30.4518262,122 L13.9625684,122 L13.9625684,82.8447266 Z M19.897627,104.624512 L19.897627,116.387207 L29.0284864,116.387207 C31.2306458,116.3514 32.8419578,115.751633 33.8624707,114.587891 C34.8829837,113.442052 35.3932325,112.081388 35.3932325,110.505859 C35.3932325,108.894523 34.8829837,107.515956 33.8624707,106.370117 C32.8419578,105.242182 31.2306458,104.660319 29.0284864,104.624512 L19.897627,104.624512 Z M19.897627,88.1352539 L19.897627,99.3339844 L28.4645215,99.3339844 C30.6308735,99.3339844 32.224282,98.7700252 33.244795,97.6420898 C34.2832116,96.6036732 34.8024122,95.2967201 34.8024122,93.7211914 C34.8024122,92.1456627 34.2832116,90.8118544 33.244795,89.7197266 C32.224282,88.6992136 30.6308735,88.1710614 28.4645215,88.1352539 L19.897627,88.1352539 Z M47.612793,82.8447266 L72.6152344,82.8447266 L72.6152344,88.4575195 L53.5478516,88.4575195 L53.5478516,99.6293945 L69.8222656,99.6293945 L69.8222656,104.893066 L53.5478516,104.893066 L53.5478516,116.387207 L72.6152344,116.387207 L72.6152344,122 L47.612793,122 L47.612793,82.8447266 Z" id="BE" fill="#4A4A4A"></path>
                <path d="M13.3665431,27.9140625 L16.0970118,27.9140625 L18.7806056,40.0546875 L18.8274806,40.0546875 L22.1438868,27.9140625 L24.0188868,27.9140625 L27.3235743,40.0546875 L27.3704493,40.0546875 L30.0657618,27.9140625 L32.7962306,27.9140625 L28.5306056,45 L26.3626368,45 L23.1048243,32.6835938 L23.0579493,32.6835938 L19.7884181,45 L17.6321681,45 L13.3665431,27.9140625 Z M44.3297559,37.5351562 L37.5680372,37.5351562 L37.5680372,45 L34.9781934,45 L34.9781934,27.9140625 L37.5680372,27.9140625 L37.5680372,35.2382812 L44.3297559,35.2382812 L44.3297559,27.9140625 L46.9195997,27.9140625 L46.9195997,45 L44.3297559,45 L44.3297559,37.5351562 Z M58.6523438,38.8828125 L56.1796875,31.4179688 L56.1328125,31.4179688 L53.6601563,38.8828125 L58.6523438,38.8828125 Z M59.390625,41.1796875 L52.9101562,41.1796875 L51.5976562,45 L48.8554688,45 L55.0664062,27.9140625 L57.234375,27.9140625 L63.4453125,45 L60.7148438,45 L59.390625,41.1796875 Z M66.4944628,30.2226562 L61.8186816,30.2226562 L61.8186816,27.9140625 L73.7718066,27.9140625 L73.7718066,30.2226562 L69.0960253,30.2226562 L69.0960253,45 L66.4944628,45 L66.4944628,30.2226562 Z M14.7200587,50.3710938 L18.6048243,50.3710938 L18.6048243,76 L14.7200587,76 L14.7200587,50.3710938 Z M32.8476562,50.3710938 L41.8125,50.3710938 C45.2812673,50.3945314 47.8828038,51.8359232 49.6171875,54.6953125 C50.2382844,55.6562548 50.6308586,56.6640572 50.7949219,57.71875 C50.9238288,58.7734428 50.9882812,60.5956902 50.9882812,63.1855469 C50.9882812,65.9394669 50.8886729,67.8613227 50.6894531,68.9511719 C50.5957027,69.5019559 50.4550791,69.9941385 50.2675781,70.4277344 C50.0683584,70.8496115 49.8281264,71.2890602 49.546875,71.7460938 C48.7968712,72.953131 47.7539129,73.9492148 46.4179688,74.734375 C45.0937434,75.5781292 43.4707127,76 41.5488281,76 L32.8476562,76 L32.8476562,50.3710938 Z M36.7324219,72.3261719 L41.3730469,72.3261719 C43.5527453,72.3261719 45.1347607,71.5820387 46.1191406,70.09375 C46.5527365,69.542966 46.8281244,68.8457073 46.9453125,68.0019531 C47.0507818,67.1699177 47.1035156,65.6113396 47.1035156,63.3261719 C47.1035156,61.0995982 47.0507818,59.5058642 46.9453125,58.5449219 C46.8046868,57.5839796 46.4707058,56.8046905 45.9433594,56.2070312 C44.865229,54.7187426 43.3418067,53.9980466 41.3730469,54.0449219 L36.7324219,54.0449219 L36.7324219,72.3261719 Z M54.7522753,63.1855469 C54.7522753,60.2089695 54.8401651,58.2168019 55.0159472,57.2089844 C55.2034482,56.2011668 55.4905547,55.3867219 55.8772753,54.765625 C56.4983722,53.5820253 57.494456,52.5273484 58.8655566,51.6015625 C60.2132196,50.6640578 61.8948434,50.1835939 63.9104785,50.1601562 C65.9495512,50.1835939 67.6487529,50.6640578 69.0081347,51.6015625 C70.3557977,52.5273484 71.3284442,53.5820253 71.9261035,54.765625 C72.3596994,55.3867219 72.6585245,56.2011668 72.8225878,57.2089844 C72.9749324,58.2168019 73.0511035,60.2089695 73.0511035,63.1855469 C73.0511035,66.115249 72.9749324,68.095698 72.8225878,69.1269531 C72.6585245,70.1582083 72.3596994,70.9843719 71.9261035,71.6054688 C71.3284442,72.7890684 70.3557977,73.8320267 69.0081347,74.734375 C67.6487529,75.6718797 65.9495512,76.1640623 63.9104785,76.2109375 C61.8948434,76.1640623 60.2132196,75.6718797 58.8655566,74.734375 C57.494456,73.8320267 56.4983722,72.7890684 55.8772753,71.6054688 C55.6897744,71.2187481 55.5198542,70.8496111 55.3675097,70.4980469 C55.226884,70.1347638 55.1096977,69.6777371 55.0159472,69.1269531 C54.8401651,68.095698 54.7522753,66.115249 54.7522753,63.1855469 Z M58.6546191,63.1855469 C58.6546191,65.7050907 58.7483682,67.4101518 58.9358691,68.3007812 C59.0999324,69.1914107 59.4339135,69.9121066 59.9378222,70.4628906 C60.3479805,70.990237 60.8870376,71.4179671 61.5550097,71.7460938 C62.211263,72.1328144 62.9964114,72.3261719 63.9104785,72.3261719 C64.8362644,72.3261719 65.6389907,72.1328144 66.3186816,71.7460938 C66.9632161,71.4179671 67.4788359,70.990237 67.8655566,70.4628906 C68.3694654,69.9121066 68.715165,69.1914107 68.902666,68.3007812 C69.0784481,67.4101518 69.1663378,65.7050907 69.1663378,63.1855469 C69.1663378,60.666003 69.0784481,58.9492233 68.902666,58.0351562 C68.715165,57.1679644 68.3694654,56.4589871 67.8655566,55.9082031 C67.4788359,55.3808567 66.9632161,54.941408 66.3186816,54.5898438 C65.6389907,54.2499983 64.8362644,54.0683595 63.9104785,54.0449219 C62.9964114,54.0683595 62.211263,54.2499983 61.5550097,54.5898438 C60.8870376,54.941408 60.3479805,55.3808567 59.9378222,55.9082031 C59.4339135,56.4589871 59.0999324,57.1679644 58.9358691,58.0351562 C58.7483682,58.9492233 58.6546191,60.666003 58.6546191,63.1855469 Z" id="WHAT-I-DO" fill="#4A4A4A"></path>
                <circle id="Oval-5" stroke="#4A4A4A" stroke-width="2" cx="5" cy="130" r="5"></circle>
            </g>
        </g>
    </g>
</svg>